Poster: 
http://imgr.us/images/1b0r9tqyxfprf9jk7po.jpg

Info:

Format : MPEG-4
Format profile : Base Media
Codec ID : isom
File size : 749 MiB
Duration : 2h 38mn
Overall bit rate : 663 Kbps
Encoded date : UTC 2012-12-28 14:25:27
Tagged date : UTC 2012-12-28 14:25:27

Video
ID : 1
Format : AVC
Format/Info : Advanced Video Codec
Format profile : High@L2.1
Format settings, CABAC : Yes
Format settings, ReFrames : 4 frames
Codec ID : avc1
Codec ID/Info : Advanced Video Coding
Duration : 2h 38mn
Bit rate : 404 Kbps
Maximum bit rate : 2 482 Kbps
Width : 608 pixels
Height : 256 pixels
Display aspect ratio : 2.40:1
Frame rate mode : Constant
Frame rate : 29.970 fps
Color space : YUV
Chroma subsampling : 4:2:0
Bit depth : 8 bits
Scan type : Progressive
Bits/(Pixel*Frame) : 0.087
Stream size : 457 MiB (61%)
Writing library : x264 core 129 r2230 1cffe9f
Encoded date : UTC 2012-12-28 13:43:40
Tagged date : UTC 2012-12-28 14:25:52

Audio
ID : 2
Format : AC-3
Format/Info : Audio Coding 3
Mode extension : CM (complete main)
Format settings, Endianness : Bighttp://imgr.us/images/z2s0hwjzbtoli1nuueg.png
Codec ID : ac-3
Duration : 2h 38mn
Bit rate mode : Constant
Bit rate : 256 Kbps
Channel(s) : 2 channels
Channel positions : Front: L R
Sampling rate : 48.0 KHz
Bit depth : 16 bits
Compression mode : Lossy
Delay relative to video : 67ms
Stream size : 289 MiB (39%)
Encoded date : UTC 2012-12-28 14:25:36
Tagged date : UTC 2012-12-28 14:25:52

Screens:
 
http://imgr.us/images/ykz23b1igq508wq3xgn.png 
http://imgr.us/images/z2s0hwjzbtoli1nuueg.png 
http://imgr.us/images/gdxo002mivspawijybek.png 
http://imgr.us/images/xyaiaa26rmbik7i3q5rz.png
